<svg width="455" height="196" viewBox="0 0 455 196" fill="none" xmlns="http://www.w3.org/2000/svg">
<g clip-path="url(#clip0_30_688)">
<path d="M23.7802 43.15C23.7802 43.15 73.1302 37.58 78.7102 34.39C84.2902 31.2 89.8502 26.43 98.2102 24.84C106.57 23.25 162.69 13.7 162.69 13.7C162.69 13.7 169.85 11.71 180.2 19.27C190.55 26.83 213.24 51.11 219.6 50.32C225.97 49.52 229.15 40.77 227.16 36.79C225.17 32.81 186.5 4.02999 179.81 2.14999C170.28 -0.530005 157.92 -0.240005 142.79 2.14999C127.67 4.54 26.5702 25.49 26.5702 25.49C26.5702 25.49 13.4402 31.61 23.7802 43.15Z" fill="black" stroke="#1D1D1B" stroke-width="0.5" stroke-miterlimit="10"/>
<g style="mix-blend-mode:multiply">
<path d="M223.19 38.77C223.19 38.77 222.88 44.92 219.21 44.34C214.24 43.56 183.39 10.51 173.04 12.1C173.04 12.1 181.57 14.81 191.5 23.74C198.01 29.6 225.92 61.59 223.19 38.77Z" fill="black"/>
</g>
<path d="M289.74 67.66L380.28 37.88C380.28 37.88 402.41 32.25 405.63 33.86C408.85 35.47 423.34 64.44 423.34 67.66C423.34 70.88 420.92 81.67 417.71 82.55C415.38 83.19 412.38 82.66 410.87 78.34C409.46 74.32 404.03 46.61 398.4 46.87C392.77 47.13 347.7 62.82 347.7 62.82C347.7 62.82 334.42 69.26 328.79 74.09C323.16 78.92 296.6 85.36 296.6 85.36C296.6 85.36 286.94 77.71 289.76 67.65L289.74 67.66Z" fill="black" stroke="#1D1D1B" stroke-width="0.5" stroke-miterlimit="10"/>
<g style="mix-blend-mode:multiply">
<path d="M296.29 68.1C296.29 68.1 398.56 32.91 404.14 36.11C404.14 36.11 385.94 38.6 362.38 47.99C338.82 57.38 296.29 70.02 296.29 70.02V68.1Z" fill="black"/>
</g>
<g style="mix-blend-mode:multiply">
<path d="M400.31 46.07C400.31 46.07 403.57 46.07 405.29 49.52C407.01 52.97 415.06 74.23 415.06 74.23C415.06 74.23 415.83 79.21 420.23 71.55C420.23 71.55 417.16 81.11 414.87 78.34C412.58 75.57 405.1 52.01 405.1 52.01C405.1 52.01 402.23 45.27 400.31 46.07Z" fill="black"/>
</g>
<path d="M300.26 68.82C300.02 65.41 290.69 63.6 287.55 62.42C284.41 61.24 271.85 64.38 271.85 64.38C259.68 61.24 217.3 55.35 192.97 55.35C168.64 55.35 160.4 66.73 157.65 66.34C154.9 65.95 140.38 65.56 134.1 64.38C127.82 63.2 129 50.25 94.85 37.9C60.71 25.56 26.57 25.49 26.57 25.49C13.22 30.15 19.81 43.98 19.81 43.98L21.86 50.33C26.18 52.36 25 60.85 26.57 73.41C28.14 85.97 34.03 102.06 40.7 111.87C47.37 121.68 72.49 132.67 85.05 133.06C97.61 133.45 108.6 131.1 116.84 117.75C125.08 104.41 133.72 80.86 133.72 80.86L143.92 82.43C143.92 82.43 146.83 82.74 149.27 85.52C151.71 88.3 153.7 93.55 156.87 102.83C164.43 124.93 181.99 142.08 181.99 142.08C181.99 142.08 187.59 149.51 215.43 154.74C238.51 159.08 258.13 152.28 258.13 152.28C275.85 145.11 279.76 107.32 279.76 107.32C279.76 107.32 281.59 94.02 287.57 90.67C294.94 86.53 295.84 86.23 300.28 85.35C303.89 84.64 300.52 72.22 300.28 68.81L300.26 68.82ZM105.45 119.33C96.03 124.43 73.2701 126.39 59.14 115.41C45.01 104.42 38.34 85.19 36.38 62.43C34.42 39.67 43.48 37.2 43.48 37.2C43.48 37.2 58.36 36.53 77.59 41.23C96.82 45.94 118.01 59.28 118.41 67.92C118.8 76.55 114.88 114.23 105.46 119.33H105.45ZM259.68 143.66C250.65 147.98 238.21 148.37 227.75 147.58C217.29 146.8 190.21 146.01 180.4 116.18C180.4 116.18 177.65 102.05 175.3 98.91C172.95 95.77 165.88 84.43 165.88 80.48C165.88 72.25 173.03 67.51 173.03 67.51C173.03 67.51 181.19 62.41 191.78 62.41C202.38 62.41 256.53 65.16 263.99 75.36C271.45 85.56 271.05 97.34 272.23 106.76C273.41 116.18 268.7 139.33 259.67 143.65L259.68 143.66Z" fill="#C13737" stroke="#1D1D1B" stroke-width="0.5" stroke-miterlimit="10"/>
<g style="mix-blend-mode:multiply">
<path d="M46.12 37.23C46.12 37.23 34.81 34.08 32.45 46.88C30.1 59.68 30.92 77.49 37.94 96.96C44.96 116.43 64.63 123.42 64.63 123.42C64.63 123.42 80.58 129.38 95.24 126.78C102.7 125.46 106.37 121.85 108.54 116.27C108.54 116.27 94.15 132.71 60.99 116.72C54.99 113.83 50.39 107.23 46.75 100.8C39.71 88.38 36.61 73.13 36.37 62.42C35.74 34.06 46.11 37.22 46.11 37.22L46.12 37.23Z" fill="#706F6F"/>
</g>
<g style="mix-blend-mode:multiply">
<path d="M173.04 65.17C173.04 65.17 161.18 69.06 162.36 85.36C163.54 101.66 174.53 121.53 177.67 127.49C180.81 133.45 193.37 144.7 203.96 147.91C214.55 151.12 244.47 151.61 256.2 145.08C256.2 145.08 223.38 152.8 198.21 139.83C198.21 139.83 184.86 132.63 181.07 118.05C181.07 118.05 178.06 104.75 176.03 100.16C172.77 92.82 168.65 91.05 165.9 80.49C163.55 71.46 173.05 65.16 173.05 65.16L173.04 65.17Z" fill="#706F6F"/>
</g>
<g style="mix-blend-mode:multiply">
<path d="M168.64 97.75C168.64 97.75 169.42 104.81 176.88 114.63L168.64 97.75Z" fill="#706F6F"/>
</g>
<g style="mix-blend-mode:multiply">
<path d="M153.13 72.27C153.13 72.27 146.28 81.31 149.22 82.37C152.16 83.43 153.13 72.27 153.13 72.27Z" fill="#706F6F"/>
</g>
<g style="mix-blend-mode:multiply">
<path d="M125.74 68.94C125.74 68.94 128.28 81.49 129.65 80.5C131.02 79.51 125.74 68.94 125.74 68.94Z" fill="#706F6F"/>
</g>
<g style="mix-blend-mode:multiply">
<path d="M111.46 120.4C111.46 120.4 122.09 106.51 129.88 83.22C129.88 83.22 116.08 112.46 111.46 120.4Z" fill="#706F6F"/>
</g>
<g style="mix-blend-mode:multiply">
<path d="M129.88 68.16C129.88 68.16 148.24 71.68 153.13 70.31L157.83 68.16C157.83 68.16 151.18 69.85 147.26 69.39C143.34 68.93 129.88 68.16 129.88 68.16Z" fill="#706F6F"/>
</g>
<g style="mix-blend-mode:multiply">
<path d="M287.16 75.98C287.16 75.98 288.35 72.65 289.22 75.98C290.09 79.31 289.22 86.74 289.22 86.74C289.22 86.74 287.55 88.5 287.16 86.74C286.77 84.98 287.16 75.98 287.16 75.98Z" fill="#706F6F"/>
</g>
<g style="mix-blend-mode:multiply">
<path d="M294.79 70.02C294.79 70.02 289.55 72.46 286.99 72.26C284.43 72.06 266.75 67.5 227.15 60.73C227.15 60.73 258.13 64.31 286.99 70.62C290.22 71.33 294.79 70.02 294.79 70.02Z" fill="#706F6F"/>
</g>
<g style="mix-blend-mode:multiply">
<path d="M125.74 65.17C125.74 65.17 120.46 51.33 105.2 44.87C97.3202 41.54 89.2902 38.78 82.5502 36.75C76.2302 34.85 71.0602 33.6 68.2202 33.13C62.3502 32.15 41.6102 28.43 39.4602 28.63C37.3102 28.83 33.0002 29.31 28.8902 29.46C24.7802 29.61 23.4102 29.46 23.4102 29.46C23.4102 29.46 27.5802 31.47 34.3702 30.39C39.6902 29.55 51.7802 31.37 51.7802 31.37C51.7802 31.37 106.76 36.36 125.74 65.17Z" fill="#706F6F"/>
</g>
</g>
<defs>
<clipPath id="clip0_30_688">
<rect width="454.95" height="195.19" fill="white"/>
</clipPath>
</defs>
</svg>
